PathFileType	4	(X/Y/Z)	C:/Users/beibeiliu/ov580/test_trc/capture2\sequence.19_training_dense_left.trc
DataRate	CameraRate	NumFrames	NumMarkers	Units	OrigDataRate	OrigDataStartFrame	OrigNumFrames
120	120	9	19	mm	120	308	351
Frame#	Time	ThumbCMC			ThumbMCP			ThumbIP			ThumbTip			IndexMCP			IndexPIP			IndexTip			MiddleMCP			MiddlePIP			MiddleTip			RingMCP			RingPIP			RingTip			PinkyMCP			PinkyPIP			PinkyTip			BackHand1			BackHand2			BackHand3	
		X0	Y0	Z0	X1	Y1	Z1	X2	Y2	Z2	X3	Y3	Z3	X4	Y4	Z4	X5	Y5	Z5	X6	Y6	Z6	X7	Y7	Z7	X8	Y8	Z8	X9	Y9	Z9	X10	Y10	Z10	X11	Y11	Z11	X12	Y12	Z12	X13	Y13	Z13	X14	Y14	Z14	X15	Y15	Z15	X16	Y16	Z16	X17	Y17	Z17	X18	Y18	Z18	
307	2.55833	-85.062	65.4152	-5.84848	-68.1921	42.5148	-22.9668	-64.0731	27.9206	-46.2254	-63.5477	13.3523	-67.253	-123.814	63.3718	-72.8382	-129.349	46.2058	-97.1107	-126.993	21.4721	-109.667	-144.478	48.2694	-72.4449	-141.899	24.0547	-96.8916	-124.666	-3.06682	-98.4315	-154.539	37.9648	-66.0795	-148.407	14.2263	-84.5786	-131.899	-10.6004	-81.7795	-165.483	25.6293	-47.8121	-159.984	5.99336	-66.5034	-136.332	-16.9039	-69.8706	-152.56	59.9343	-13.51	-147.238	68.7956	9.82987	-123.028	81.9244	-10.0971	
308	2.56667	-88.2025	62.3536	-9.16476	-69.5649	42.717	-23.6142	-60.008	28.1953	-47.0213	-60.8747	13.8238	-64.9321	-124.509	60.7131	-72.9612	-128.888	45.2564	-99.9711	-127.52	19.1237	-110.318	-145.011	46.8121	-71.3406	-141.862	24.147	-94.7564	-127.704	-5.5299	-97.6099	-156.843	32.2157	-64.3574	-151.319	9.33389	-82.2898	-128.597	-10.167	-81.9585	-165.763	21.5781	-42.7108	-158.161	-1.91941	-64.0305	-138.156	-19.8156	-68.4102	-150.553	59.1325	-13.9648	-148.445	64.1552	12.5715	-126.516	76.445	-10.7318	
309	2.575	-88.5541	62.9839	-11.4296	-74.1572	42.3783	-27.2015	-63.7571	28.2881	-51.087	-63.19	13.2309	-71.8238	-127.22	59.0186	-71.6697	-134.244	40.6798	-96.641	-129.046	16.3459	-111.248	-144.53	44.6071	-72.806	-142.332	23.2977	-94.5425	-126.776	-8.60442	-95.5644	-157.551	29.3557	-60.1685	-148.007	7.33185	-81.7897	-123.982	-16.985	-78.7088	-162.677	18.9686	-46.091	-156.989	-3.34454	-62.9468	-131.798	-21.1413	-67.3569	-155.733	54.9076	-13.2492	-147.21	62.835	15.2612	-128.991	75.6959	-13.4511	
310	2.58333	-91.2342	64.2379	-12.3879	-72.2008	45.123	-30.1596	-67.1254	31.1139	-49.2039	-62.7706	16.0167	-69.242	-130.226	56.1648	-73.0496	-137.464	36.7006	-95.5518	-132.384	10.6152	-107.676	-147.525	39.1461	-71.9882	-146.197	15.0178	-92.536	-124.485	-13.1966	-96.1476	-158.431	24.6468	-59.3811	-149.669	1.90391	-79.8335	-124.724	-21.8493	-75.5089	-163.774	12.8286	-44.0148	-154.24	-10.3902	-60.3126	-130.447	-23.4188	-64.3913	-157.531	50.2543	-12.2208	-147.482	62.1626	11.5682	-127.93	74.4258	-10.062	
311	2.59167	-94.3187	64.1268	-10.2147	-76.9951	44.0163	-31.1676	-63.7337	32.7457	-52.1175	-67.1065	16.0144	-70.2327	-137.444	48.956	-71.7888	-140.271	32.5526	-95.198	-132.759	9.19882	-110.437	-149.223	35.6665	-71.1291	-148.388	8.55434	-90.497	-123.52	-17.4515	-94.937	-158.649	19.8596	-59.0474	-150.933	-5.93457	-76.7716	-124.713	-24.1294	-74.7485	-162.445	8.16033	-43.9988	-152.915	-13.1778	-59.2141	-127.825	-30.0731	-59.8101	-158.194	45.4869	-12.3039	-148.193	59.361	14.6409	-132.298	72.9945	-16.4884	
312	2.6	-94.7094	65.4829	-15.5746	-79.2395	45.762	-32.2416	-69.5543	32.553	-52.0364	-68.8937	14.6116	-72.1768	-139.247	46.793	-72.9076	-141.665	26.3664	-96.2384	-134.484	-0.0173748	-107.59	-153.917	27.7916	-67.6958	-144.994	4.97304	-92.744	-121.566	-21.0416	-93.7597	-160.336	12.6865	-58.4951	-149.212	-8.41738	-75.8327	-120.072	-24.1229	-73.7233	-163.086	1.11337	-42.1554	-150.112	-19.547	-56.1316	-126.264	-35.1256	-58.2928	-159.377	41.9492	-13.3993	-152.264	53.9453	15.672	-134.798	68.9471	-11.8536	
313	2.60833	-96.9448	66.5359	-13.039	-81.0508	48.1204	-30.1352	-71.7877	30.6191	-56.8657	-68.4429	15.8999	-73.4685	-141.228	43.6092	-70.1534	-146.949	22.7926	-91.6262	-136.657	-2.43855	-106.348	-153.979	25.8021	-69.7256	-150.401	-2.32762	-87.7077	-122.501	-23.8418	-92.8963	-160.837	7.58569	-57.8655	-149.832	-17.5778	-71.1761	-118.665	-28.6199	-71.7455	-161.049	-1.67042	-35.9448	-150.204	-24.0683	-54.1683	-121.93	-34.8724	-56.2694	-160.491	40.628	-14.5277	-155.573	52.7512	16.1161	-138.69	67.2549	-13.9293	
314	2.61667	-102.304	65.2771	-12.9098	-83.3777	45.8024	-32.8218	-71.7939	33.3038	-53.4571	-71.5617	14.4864	-69.4195	-145.038	39.2495	-67.7774	-149.223	18.2248	-90.6057	-137.831	-5.69945	-106.111	-157.084	19.6918	-64.6752	-151.382	-3.57301	-86.9216	-123.976	-24.7083	-91.5549	-163.024	2.91448	-51.5111	-150.383	-15.4617	-71.8536	-121.148	-29.6212	-72.4873	-161.249	-5.93435	-37.4782	-151.503	-27.4442	-50.1777	-121.222	-39.2832	-55.3514	-162.524	32.5663	-11.7161	-156.663	47.3152	18.1338	-144.35	60.8961	-12.7944	
315	2.625	-104.562	65.2134	-14.0398	-84.9353	46.5622	-32.353	-75.1884	32.5584	-52.3013	-72.0173	13.2027	-74.0204	-149.501	33.9129	-71.7989	-150.974	16.0398	-93.5288	-140.083	-6.86842	-106.928	-159.353	15.2622	-68.3243	-151.137	-7.62521	-88.6084	-124.494	-28.2363	-89.5304	-162.426	0.998331	-52.5196	-149.123	-21.3954	-70.934	-120.69	-33.3026	-70.57	-160.708	-9.70187	-35.1317	-147.101	-29.8876	-51.901	-116.318	-37.4007	-54.5881	-161.147	33.4244	-9.95695	-158.59	43.7827	17.6292	-147.268	60.1287	-11.2583	
